<?xml version="1.0" encoding="UTF-8"?>
<!DOCTYPE svg PUBLIC "-//W3C//DTD SVG 1.1//EN" "http://www.w3.org/Graphics/SVG/1.1/DTD/svg11.dtd">
<!-- Creator: CorelDRAW -->
<svg xmlns="http://www.w3.org/2000/svg" xml:space="preserve" width="1.70666in" height="1.70666in" version="1.1" style="shape-rendering:geometricPrecision; text-rendering:geometricPrecision; image-rendering:optimizeQuality; fill-rule:evenodd; clip-rule:evenodd"
viewBox="0 0 1706.66 1706.66"
 xmlns:xlink="http://www.w3.org/1999/xlink"
 xmlns:xodm="http://www.corel.com/coreldraw/odm/2003">
 <defs>
  <style type="text/css">
   <![CDATA[
    .fil0 {fill:black}
   ]]>
  </style>
 </defs>
 <g id="Layer_x0020_1">
  <metadata id="CorelCorpID_0Corel-Layer"/>
  <path class="fil0" d="M846.92 1462.8c-12.08,0 -21.5,-10.81 -19.83,-22.79 50.77,-361.8 -40.06,-601.63 -125.21,-739.13 -13.87,-22.39 20.15,-43.42 34,-21.05 88.62,143.11 183.24,392.13 130.82,765.75 -1.41,10 -9.96,17.22 -19.78,17.22zm-186.7 -37.8c-12.57,0 -22.09,-11.55 -19.62,-23.91 53.62,-267.96 -6.47,-480.5 -66.33,-611.62 -10.93,-23.96 25.46,-40.55 36.38,-16.61 62.31,136.49 124.9,357.63 69.17,636.07 -1.91,9.48 -10.26,16.07 -19.6,16.07zm-207.99 -360.65c-22.88,0 -272.98,-192.69 -137.54,-438.08 -100.56,-105.43 -231.87,124.97 -274.7,215.2 -8.63,18.18 -35.96,13.47 -37.97,-6.59 -9.95,-99.69 4.54,-387.6 248.21,-380.84 -15.3,-20.78 -54.11,-53.43 -152.61,-81.38 -17.37,-4.93 -19.78,-28.72 -3.72,-37 73.49,-37.89 312.85,-122.63 401.8,64.25 163.04,-170.2 396.75,-255 561.4,24.53 10.5,17.82 -10.15,37.93 -27.74,27.15 -6.85,-4.18 -155.04,-92.13 -321.49,14.34 223.58,-5.48 331.59,144.71 300.22,403.8 -2.39,19.71 -29.22,24.19 -37.88,6.24 -0.86,-1.78 -87.26,-178.23 -247.29,-218.03 -25.52,-6.35 -15.94,-45.13 9.65,-38.81 119.05,29.61 199.32,122.7 240.74,183.81 3.7,-108.85 -22.15,-188.88 -77.15,-238.34 -96,-86.33 -251.03,-51.89 -252.57,-51.53 -19.93,4.61 -33.15,-20.56 -17.88,-34.33 140.42,-126.74 281.69,-112.07 360.73,-87.96 -51.21,-66.37 -109.46,-102.51 -173.71,-107.61 -158.46,-12.68 -306.71,164.8 -308.19,166.59 -10.06,12.17 -29.43,8.39 -34.38,-6.33 -50.3,-149.37 -197.51,-133.65 -310.17,-92.43 158.83,59.67 157.37,150.08 117.66,145.21 -174.7,-21.43 -228.42,116.94 -236.41,257.67 63.57,-109.06 198.77,-285.07 313.47,-142.53 5.25,6.53 5.89,15.63 1.57,22.83 -100.4,167.34 0.04,298.24 63.74,358.14 -23.48,-137 16.33,-228.17 56.93,-282.46 15.74,-20.99 47.73,2.96 32.04,23.95 -59.15,79.08 -71.77,181.77 -37.48,305.19 3.57,12.84 -6.23,25.36 -19.26,25.36z"/>
  <path class="fil0" d="M876.97 1464.13c-131.75,0 -237.08,-83.24 -357.36,-13.97 -22.84,13.15 -42.77,-21.48 -20,-34.63 173.74,-100.3 307.26,66.37 480.96,-14.19 187.84,-87.12 324.08,76.35 477.78,-12.56 22.75,-13.16 42.81,21.45 20,34.63 -173.77,100.34 -307.22,-66.41 -480.94,14.21 -42.28,19.6 -82.39,26.51 -120.44,26.51z"/>
  <path class="fil0" d="M1332.53 1455.52c-8.97,0 -17.12,-6.08 -19.39,-15.19 -50.57,-203.64 6.56,-383.39 54.09,-468.98 -15.72,-10.57 -23.49,-10.86 -44.53,-10.66 -49.71,68.97 -120.7,213.58 -85.3,448.74 3.91,26.06 -35.63,32 -39.55,5.97 -32.37,-214.97 20.16,-359.8 69.57,-443.15 -73.64,30.51 -113.01,110.96 -113.53,112.05 -8.66,17.94 -35.49,13.56 -37.88,-6.22 -16.15,-133.59 30.49,-225.17 147.04,-237.96 -79.33,-33.66 -145.26,5.89 -146.07,6.39 -17.58,10.86 -38.23,-9.34 -27.74,-27.15 92.06,-156.29 224.49,-122.09 324.65,-23.98 58.3,-100.18 195.43,-50.11 234.68,-29.8 16.02,8.29 13.65,32.08 -3.7,37 -34.16,9.69 -55.53,20.62 -68.46,30.06 130.15,12.67 133.94,176.85 129.05,225.46 -2.02,20.07 -29.33,24.78 -37.97,6.57 -38.89,-81.89 -95.78,-102.63 -129.93,-107.26 44.41,110.04 -33.65,200.75 -85.65,235.59 -15.34,10.28 -35.35,-4.16 -30.41,-21.97 24.17,-86.98 1.83,-140.85 -23.83,-171.99 -43.33,82.5 -91.8,246.05 -45.73,431.66 3.13,12.61 -6.48,24.81 -19.4,24.81zm76.74 -500.8c31.54,28.9 68.35,81.53 61.71,166.85 31.37,-37.26 62,-99.1 17.01,-174.09 -27.47,-45.78 99.76,-49.27 175.38,37.46 -21.11,-147.5 -118.6,-100.74 -137.4,-116.24 -17.27,-14.24 -6.2,-55.93 56.39,-85.69 -58.65,-16.51 -120.64,-14.19 -143.62,54.27 -4.98,14.83 -24.4,18.38 -34.37,6.34 -31.95,-38.58 -148.09,-149.3 -243.4,-53.58 48.48,-8.53 117.96,-4.02 186.87,58.18 15.13,13.65 2.33,38.9 -17.89,34.33 -0.79,-0.18 -85.17,-18.56 -136.14,27.46 -24.88,22.47 -38.51,57.15 -40.76,103.48 48.28,-59.92 119.84,-107.18 210.48,-88.9 5.86,1.18 38.57,20.55 45.74,30.13z"/>
  <path class="fil0" d="M561.65 808.41c-116.78,0 -116.78,-177.47 0,-177.47 116.78,0 116.79,177.47 0,177.47zm0 -137.47c-64.15,0 -64.15,97.48 0,97.48 64.15,0 64.16,-97.48 0,-97.48z"/>
  <path class="fil0" d="M660.7 742.46c-74.39,0 -32.38,-44.18 -77.47,-66.51 -30.15,-14.93 -1.33,-110.96 77.48,-110.96 116.79,0 116.78,177.48 -0,177.48zm-12.32 -41.55c70.24,18.32 84.99,-95.93 12.32,-95.93 -24.56,0 -44.94,18.26 -48.27,41.93 18.33,12.81 31.22,32.18 35.95,54z"/>
  <path class="fil0" d="M643.8 940.93c-19.78,0 -27.58,-25.96 -10.9,-36.77l143.93 -93.34c22.09,-14.33 43.86,19.23 21.78,33.56 -20.24,13.13 -141.97,96.56 -154.81,96.56z"/>
  <path class="fil0" d="M678.69 1137.98c-20.65,0 -27.76,-27.83 -9.47,-37.63l165.56 -88.75c23.22,-12.4 42.09,22.81 18.89,35.25 -21.87,11.72 -163.36,91.13 -174.98,91.13z"/>
  <path class="fil0" d="M676.14 1319.32c-21.41,0 -27.81,-29.49 -8.17,-38.26l185.41 -82.86c23.98,-10.78 40.37,25.76 16.31,36.51 -22.96,10.26 -183.48,84.61 -193.55,84.61z"/>
  <path class="fil0" d="M1331.47 1143.04c-10.7,0 -84.2,-44.32 -98.84,-52.53 -22.99,-12.89 -3.36,-47.73 19.55,-34.89l89.08 49.96c17.93,10.05 10.63,37.45 -9.79,37.45z"/>
  <path class="fil0" d="M1313.28 1305.17c-10.53,0 -96.78,-48.5 -112.67,-56.89 -23.26,-12.29 -4.62,-47.65 18.68,-35.37l103.34 54.57c18.41,9.72 11.32,37.69 -9.35,37.69z"/>
 </g>
</svg>
