<?xml version="1.0" encoding="iso-8859-1"?>
<!-- Generator: Adobe Illustrator 21.0.0, SVG Export Plug-In . SVG Version: 6.00 Build 0)  -->
<svg version="1.1" id="beach-summer-island-yatch" xmlns="http://www.w3.org/2000/svg" xmlns:xlink="http://www.w3.org/1999/xlink"
	 x="0px" y="0px" viewBox="0 0 64 64" style="enable-background:new 0 0 64 64;" xml:space="preserve">
<rect x="5" width="2" height="4"/>
<rect x="5" y="6" width="2" height="4"/>
<rect x="7" y="4" width="4" height="2"/>
<rect x="1" y="4" width="4" height="2"/>
<path d="M63,40c-2.255,0-4.456,0.171-6.581,0.491c0.506-1.044,0.511-2.837-1.344-5.883c-1.557-2.555-4.072-5.409-7.085-8.038
	c-1.875-1.637-3.81-3.072-5.665-4.211l20.105,1.363c0.022,0.001,0.045,0.002,0.067,0.002c0.241,0,0.475-0.087,0.657-0.247
	c0.2-0.174,0.322-0.421,0.341-0.686c0.248-3.675-7.45-6.127-15.184-6.651c-2.303-0.156-4.538-0.137-6.581,0.038L56.243,3.51
	c0.2-0.174,0.322-0.421,0.341-0.686c0.018-0.265-0.07-0.525-0.245-0.726C53.917-0.672,46.738,3.033,40.9,8.131
	c-1.459,1.273-2.798,2.599-3.971,3.919C36.977,11.323,37,10.624,37,10c0-3.714-0.737-10-3.5-10S30,6.286,30,10
	c0,0.496,0.014,1.039,0.044,1.605c-1.075-1.172-2.27-2.344-3.565-3.474C20.641,3.034,13.465-0.674,11.04,2.099
	c-0.175,0.2-0.263,0.461-0.245,0.726c0.019,0.265,0.141,0.512,0.341,0.686l14.513,12.67c-2.042-0.176-4.277-0.195-6.581-0.039
	c-7.733,0.524-15.432,2.977-15.184,6.651c0.019,0.265,0.141,0.512,0.341,0.686c0.183,0.16,0.416,0.247,0.657,0.247
	c0.022,0,0.045-0.001,0.067-0.002l20.543-1.393c-2.175,1.219-4.503,2.887-6.746,4.845c-3.013,2.629-5.528,5.483-7.085,8.038
	c-2.243,3.682-1.769,5.537-0.976,6.445C10.883,41.884,11.16,42,11.438,42c0.233,0,0.468-0.081,0.657-0.247l21.454-18.73
	c0.297,7.774,2.302,15.244,5.84,21.977h-16.76l-4.937-4.723c-0.29-0.276-0.719-0.354-1.084-0.197C16.239,40.237,16,40.6,16,41v4H0v2
	h16v5c0,0.553,0.447,1,1,1h11.5c0.408,0,0.776-0.248,0.928-0.628c0.152-0.379,0.059-0.812-0.236-1.095L24.72,47h15.324
	c-4.679,3.467-7.853,7.986-8.765,13.011c-1.535,0.057-2.391,0.677-3.077,1.185C27.571,61.663,27.115,62,26.094,62
	s-1.478-0.337-2.108-0.804C23.266,60.663,22.369,60,20.688,60s-2.576,0.663-3.296,1.196C16.762,61.663,16.307,62,15.286,62
	c-1.02,0-1.475-0.337-2.104-0.804C12.463,60.663,11.567,60,9.889,60c-1.68,0-2.575,0.663-3.295,1.196
	C5.963,61.663,5.508,62,4.487,62v2c1.681,0,2.576-0.663,3.296-1.196C8.413,62.337,8.869,62,9.889,62
	c1.019,0,1.474,0.337,2.103,0.804C12.711,63.337,13.606,64,15.286,64c1.681,0,2.576-0.663,3.296-1.196
	C19.213,62.337,19.668,62,20.688,62c1.021,0,1.477,0.337,2.107,0.804C23.516,63.337,24.412,64,26.094,64s2.578-0.663,3.298-1.196
	c0.521-0.386,0.942-0.671,1.642-0.762C31.016,62.36,31,62.679,31,63c0,0.553,0.447,1,1,1h31c0.553,0,1-0.447,1-1V41
	C64,40.447,63.553,40,63,40z M18,51v-7.66L26.008,51H18z M38.27,22.468c2.559,1.118,5.544,3.109,8.406,5.608
	s5.238,5.188,6.691,7.572c0.759,1.247,1.126,2.178,1.269,2.841L35.64,21.907l1.416,0.096C37.426,22.127,37.82,22.272,38.27,22.468z
	 M54.319,40.867c-4.597,0.933-8.774,2.585-12.285,4.779c-3.677-6.416-5.866-13.586-6.394-21.087L54.319,40.867z M48.177,18.137
	c6.401,0.434,11.022,2.088,12.666,3.474l-23.391-1.586c-0.031-0.01-0.062-0.019-0.093-0.029l1.64-1.432
	C41.58,18.061,44.79,17.907,48.177,18.137z M42.215,9.637c4.834-4.22,9.271-6.315,11.413-6.498L38.073,16.718
	c-0.15,0.033-0.308,0.062-0.454,0.098c-0.602,0.146-1.13,0.306-1.606,0.475c0.149-0.435,0.278-0.903,0.389-1.393
	C37.854,13.864,39.866,11.688,42.215,9.637z M32,10c0-4.746,0.986-7.396,1.5-7.938C34.014,2.604,35,5.254,35,10
	c0,2.112-0.199,3.784-0.461,5.065c-0.258,0.373-0.503,0.742-0.723,1.104c-0.045,0.074-0.083,0.144-0.126,0.217
	c-0.043-0.073-0.081-0.142-0.126-0.217c-0.362-0.593-0.78-1.204-1.239-1.823C32.133,13.174,32,11.73,32,10z M13.751,3.139
	c2.142,0.183,6.579,2.279,11.413,6.498c2.076,1.812,3.89,3.724,5.288,5.547c0.128,0.691,0.285,1.358,0.483,1.962
	c-0.363-0.116-0.748-0.227-1.174-0.331c-0.146-0.035-0.303-0.064-0.453-0.097L13.751,3.139z M19.202,18.137
	c1.032-0.07,2.048-0.104,3.034-0.104c2.265,0,4.359,0.192,6.16,0.547l1.647,1.438L6.536,21.61
	C8.18,20.225,12.801,18.57,19.202,18.137z M12.101,39.094c0.143-0.663,0.51-1.594,1.269-2.841c1.453-2.384,3.829-5.073,6.691-7.572
	s5.848-4.49,8.406-5.608c1.338-0.584,2.31-0.821,2.986-0.873L12.101,39.094z M62,62H33.033c0.353-5.247,3.475-9.992,8.356-13.544
	c2.049,3.256,4.466,6.313,7.254,9.101l1.15,1.15l1.414-1.414l-1.15-1.15c-2.697-2.697-5.033-5.656-7.011-8.809
	c5.074-3.17,11.691-5.155,18.954-5.322V62z"/>
<path d="M27.47,55.242c0.075-0.298,0.008-0.615-0.182-0.857C27.099,54.142,26.808,54,26.5,54h-18c-0.308,0-0.599,0.142-0.788,0.385
	c-0.189,0.242-0.257,0.56-0.182,0.857C8.23,58.044,10.736,60,13.623,60h7.065h0.688C24.264,60,26.77,58.044,27.47,55.242z
	 M13.623,58c-1.505,0-2.857-0.779-3.624-2h15.002c-0.767,1.221-2.119,2-3.624,2H13.623z"/>
<rect x="54" y="58" width="2" height="2"/>
<rect x="58" y="58" width="2" height="2"/>
<rect x="54" y="54" width="2" height="2"/>
<rect x="58" y="54" width="2" height="2"/>
<rect x="50" y="50" width="2" height="2"/>
<rect x="54" y="50" width="2" height="2"/>
<rect x="58" y="50" width="2" height="2"/>
<rect x="50" y="46" width="2" height="2"/>
<rect x="54" y="46" width="2" height="2"/>
<rect x="58" y="46" width="2" height="2"/>
<path d="M54.793,8.707l2,2C56.988,10.902,57.244,11,57.5,11s0.512-0.098,0.707-0.293l2-2l-1.414-1.414L57.5,8.586l-1.293-1.293
	L54.793,8.707z"/>
<path d="M57.793,13.707l2,2C59.988,15.902,60.244,16,60.5,16s0.512-0.098,0.707-0.293l2-2l-1.414-1.414L60.5,13.586l-1.293-1.293
	L57.793,13.707z"/>
<path d="M4.5,28.586l-1.293-1.293l-1.414,1.414l2,2C3.988,30.902,4.244,31,4.5,31s0.512-0.098,0.707-0.293l2-2l-1.414-1.414
	L4.5,28.586z"/>
<path d="M6.793,35.707C6.988,35.902,7.244,36,7.5,36s0.512-0.098,0.707-0.293l2-2l-1.414-1.414L7.5,33.586l-1.293-1.293
	l-1.414,1.414L6.793,35.707z"/>
</svg>
