<?xml version="1.0" encoding="UTF-8" standalone="no"?> <svg id="Layer_1" data-name="Layer 1" xmlns="http://www.w3.org/2000/svg" viewBox="0 0 48 48"><title>window f</title><path d="M45.79,3.373H2.21a.5.5,0,0,0-.5.5V26.152c0,.012.009.021.01.033v.506c0,.015-.01.029-.01.044V44.127a.5.5,0,0,0,.5.5H15.352a.5.5,0,0,0,.492-.584l-1.331-7.78a10.675,10.675,0,0,1-.164-1.833,10.484,10.484,0,0,1,.046-1.048h0a10.31,10.31,0,0,1,.882-3.269c0-.006.009-.008.012-.014a10.357,10.357,0,0,1,2.193-3.212,11.619,11.619,0,0,0,2.822-11.973l-1.2-3.606a7.978,7.978,0,0,0,.8-.374,8.372,8.372,0,0,0,3.94.989,8.528,8.528,0,0,0,4.1-1.077,7.785,7.785,0,0,0,.9.434l-1.2,3.634a11.663,11.663,0,0,0,2.869,12.01,10.485,10.485,0,0,1,2.177,3.17c0,.008.013.011.017.019a10.8,10.8,0,0,1,.895,3.335h0a11.086,11.086,0,0,1-.093,2.769l-1.282,7.828a.5.5,0,0,0,.493.581h0l4.306-.008a.443.443,0,0,0,.184.042.553.553,0,0,0,.209-.043l4.084-.007a.447.447,0,0,0,.2.05.545.545,0,0,0,.223-.051l3.861-.007a.5.5,0,0,0,.5-.5V26.735h0V3.873A.5.5,0,0,0,45.79,3.373ZM42.5,36.218l-1.207,7.393-3.489.006,1.188-7.237a11.694,11.694,0,0,0,0-3.706l3.3-.841A10.707,10.707,0,0,1,42.5,36.218Zm.036-5.481c-.011,0-.021,0-.032,0s-.011.007-.017.009l-7.96,2.031a11.756,11.756,0,0,0-.679-2.539L41.1,28.428a.451.451,0,0,0,.053-.01l4.142-1.041v2.657ZM29.631,10.52a6.761,6.761,0,0,1-.706-.285c.043-.032.08-.071.122-.1.142-.11.273-.23.407-.349.108-.094.225-.179.327-.279l.081.029a1.257,1.257,0,0,0,.13.046l.073.017c.185.065.359.109.535.153a5.32,5.32,0,0,0,.773.125A1.524,1.524,0,0,0,31.6,9.9c.142.012.3.013.461.013a6.552,6.552,0,0,0,2.859-.671A.408.408,0,0,0,35,9.193a5.792,5.792,0,0,0,.612-.358c.031-.02.067-.036.1-.057l.728.728a7.508,7.508,0,0,1-6.8,1.014ZM41.467,22.536l3.812,3.812-4.072,1.024a11.173,11.173,0,0,0-1.032-1.191A10.666,10.666,0,0,1,37.6,15.229l.13-.393L41.32,18.43v3.753A.5.5,0,0,0,41.467,22.536ZM34.48,8.334a.562.562,0,0,0-.074.045,5.545,5.545,0,0,1-2.346.534c-.134,0-.262,0-.379-.009-.014,0-.175-.017-.189-.017a5.463,5.463,0,0,1-.651-.11c-.084-.02-.171-.044-.263-.07l-.058-.018c.037-.046.065-.1.1-.145.109-.142.207-.289.306-.436.067-.1.146-.2.209-.3.035.007.07,0,.106.012a4.664,4.664,0,0,0,.541.061c.07,0,.139.015.209.015.023,0,.045,0,.068,0a4.5,4.5,0,0,0,1.423-.234c.066-.022.128-.052.194-.077a4.317,4.317,0,0,0,.481-.217c.032-.017.069-.027.1-.045l.725.725-.018.012C34.813,8.161,34.653,8.249,34.48,8.334ZM32.06,5.893a2.483,2.483,0,0,0,1.338-.4.214.214,0,0,0,.022-.01v.8a.493.493,0,0,0,.089.268s0,.011.006.016c-.044.02-.082.05-.126.068l-.086.032a3.551,3.551,0,0,1-1.417.222c-.042,0-.085,0-.127-.006s-.082-.017-.123-.022c.025-.054.042-.114.066-.17.066-.154.125-.313.184-.473.04-.11.089-.213.126-.325l.011,0ZM33.1,4.442a1.253,1.253,0,0,1-.44.3,1.537,1.537,0,0,1-.3.1c-.031.007-.063.01-.095.015.011-.061.021-.124.033-.193l.037-.295h.846C33.156,4.4,33.127,4.418,33.1,4.442Zm1.191,7.164a8.455,8.455,0,0,0,2.847-1.395l.209.209v2.372l-.7,2.122a11.66,11.66,0,0,0,2.866,12.007c.229.235.438.473.636.713l-2.787.7a11.49,11.49,0,0,0-1.687-2.151A10.671,10.671,0,0,1,33.1,15.229Zm11,13.339-2.97-2.969V4.373h2.97Zm-3.97-7.929-2.97-2.97V4.373h2.97ZM37.35,9.005,35.558,7.214l-.874-.875-.264-.263v-1.7h2.93Zm-8.092-4.5c-.027.145-.06.282-.113.471a.578.578,0,0,0-.039.1,2.922,2.922,0,0,1-.143.39c-.062.161-.144.322-.225.485a5.685,5.685,0,0,1-1.121,1.471,5.3,5.3,0,0,1-1.588,1.03,5.414,5.414,0,0,1-4.15.1A4.975,4.975,0,0,1,20.688,7.9a4.177,4.177,0,0,1-.442-.35,5.155,5.155,0,0,1-.886-.971,4.8,4.8,0,0,1-.289-.443,5.489,5.489,0,0,1-.656-1.707l-.009-.06h1.036a2.841,2.841,0,0,0,.074.288l.124.344c.028.075.059.146.09.217l.07.158c.063.117.127.232.209.369.011.018.036.053.062.087.03.05.07.1.1.157s.065.1.1.156l.064.08a2.133,2.133,0,0,0,.189.215,1.5,1.5,0,0,0,.114.114l.19.189c.016.016.095.081.113.095a1,1,0,0,0,.178.132,3.97,3.97,0,0,0,1.133.639l.1.033c.1.033.189.064.294.092.087.026.17.038.2.047a4.14,4.14,0,0,0,.416.085,4.961,4.961,0,0,0,.877.023.6.6,0,0,0,.078-.006.813.813,0,0,0,.181-.018c.093-.011.177-.021.268-.039a.215.215,0,0,0,.094-.021,1.4,1.4,0,0,0,.325-.08c.032-.007.06-.015.079-.021.1-.032.185-.064.313-.113.073-.028.145-.055.215-.085a4.581,4.581,0,0,0,.557-.3,1.45,1.45,0,0,0,.185-.129,1.744,1.744,0,0,0,.2-.151.955.955,0,0,0,.19-.17,1.955,1.955,0,0,0,.255-.225,1.016,1.016,0,0,0,.093-.1l.2-.224c.062-.08.117-.16.2-.273a2.789,2.789,0,0,0,.241-.389c.064-.111.115-.222.206-.423a4.033,4.033,0,0,0,.235-.75h1.033A.472.472,0,0,0,29.258,4.505Zm-7.716-.132,0,.007.063.137a2.829,2.829,0,0,0,.449.62,1.81,1.81,0,0,0,.253.22,1.308,1.308,0,0,0,.237.166c.018.014.036.027.055.039l.148.079c.028.016.139.057.178.072a.942.942,0,0,0,.161.059l.025.008h0A.755.755,0,0,0,23.2,5.8a1.327,1.327,0,0,0,.285.06l.053,0a1.941,1.941,0,0,0,.309.024h.005a1.592,1.592,0,0,0,.3-.021c.059,0,.119-.013.2-.026a.871.871,0,0,0,.133-.036l.067-.021a.961.961,0,0,0,.224-.078.808.808,0,0,0,.2-.089,1.735,1.735,0,0,0,.178-.1c.063-.038.123-.076.151-.1a2.279,2.279,0,0,0,.6-.6c.026-.033.046-.065.067-.1l-.393-.315.453.217.043-.1a.737.737,0,0,0,.089-.151H27.22l-.007.026a3.153,3.153,0,0,1-.146.4,2.9,2.9,0,0,1-.152.305,1.414,1.414,0,0,1-.127.21c-.007.008-.052.073-.058.082-.048.071-.094.136-.128.182l-.191.213c-.011.011-.028.031-.046.052A1.8,1.8,0,0,1,26.184,6a1.306,1.306,0,0,1-.163.144,1.249,1.249,0,0,1-.155.112,1.093,1.093,0,0,0-.139.1,3.879,3.879,0,0,1-.434.236l-.21.081c-.069.026-.138.053-.235.085a.511.511,0,0,0-.095.025,1.474,1.474,0,0,1-.153.048.457.457,0,0,0-.105.012c-.068.014-.129.021-.248.039a.5.5,0,0,0-.16.014v0c-.058,0-.12.006-.184.006a4.384,4.384,0,0,1-.5-.022c-.1-.018-.2-.033-.355-.072a1.156,1.156,0,0,1-.146-.037c-.073-.02-.147-.045-.3-.1a3.341,3.341,0,0,1-.918-.526.651.651,0,0,1-.09-.071l-.239-.226c-.01-.009-.14-.142-.151-.152a1.481,1.481,0,0,1-.111-.134c-.06-.084-.12-.169-.171-.255a.4.4,0,0,0-.071-.1c-.057-.095-.113-.2-.145-.251l-.059-.14c-.023-.049-.046-.1-.065-.154l-.1-.289Zm3.2.227c-.008,0-.109.069-.116.074l-.137.08a.42.42,0,0,0-.135.056.661.661,0,0,0-.132.036l-.065.018-.063.009a.438.438,0,0,0-.125.016.375.375,0,0,1-.076,0c-.03,0-.088-.039-.126,0l-.133-.019-.08.493-.021-.508a.531.531,0,0,0-.112-.031l-.009,0a.362.362,0,0,0-.047-.013.514.514,0,0,0-.133-.053l-.023-.008-.049-.026a.509.509,0,0,0-.093-.06.368.368,0,0,1-.091-.058.547.547,0,0,0-.088-.069.743.743,0,0,1-.108-.1c-.024-.025-.031-.044-.052-.069h2.234A1.321,1.321,0,0,1,24.738,4.6ZM18.9,10.323q-.285.121-.573.215h0a7.4,7.4,0,0,1-4.157.157,7.44,7.44,0,0,1-2.625-1.243l.721-.722A5.469,5.469,0,0,0,13,9.174a5.663,5.663,0,0,0,.619.281,6.4,6.4,0,0,0,2.365.458c.063,0,.118-.012.18-.014a6.058,6.058,0,0,0,.735-.058c.092-.013.18-.029.269-.046a4.86,4.86,0,0,0,.782-.2L18,9.582c.026.025.051.042.078.066.192.177.385.344.571.486C18.731,10.2,18.813,10.263,18.9,10.323ZM13.474,32.705,2.71,29.9V27.375l11.426,2.866A11.337,11.337,0,0,0,13.474,32.705ZM9.021,36.433l1.242,7.194H6.783L5.511,36.261a10.4,10.4,0,0,1-.151-1.794,10.571,10.571,0,0,1,.366-2.746l3.3.859a11.156,11.156,0,0,0,0,3.853Zm-2.487-13.9a.5.5,0,0,0,.146-.353V18.43l3.564-3.564.122.365A10.612,10.612,0,0,1,7.772,26.184a13.317,13.317,0,0,0-1.007,1.178L2.721,26.348ZM15.98,6.9a2.582,2.582,0,0,1-.352-.018,3.219,3.219,0,0,1-.69-.139c-.137-.043-.267-.095-.4-.146-.033-.015-.067-.043-.1-.06.005-.006,0-.015.008-.022a.493.493,0,0,0,.093-.274V5.435c.017.011.038.017.056.029a2.537,2.537,0,0,0,.331.173c.073.033.142.068.218.1a2.475,2.475,0,0,0,.4.1c.048.009.091.029.14.035.011.036.024.064.036.1a8.345,8.345,0,0,0,.3.828c.015.033.03.066.044.1C16.035,6.893,16.011,6.9,15.98,6.9Zm-.614-2.529c.017.125.036.26.06.4a1.27,1.27,0,0,1-.12-.051c-.048-.024-.1-.047-.141-.075a1.52,1.52,0,0,1-.179-.141c-.039-.034-.08-.066-.116-.1-.008-.009-.014-.02-.022-.029ZM7.827,27.628c.217-.264.436-.515.656-.74a11.6,11.6,0,0,0,2.831-11.973l-.664-2V10.339l.173-.173a8.483,8.483,0,0,0,2.825,1.419l1.217,3.645a10.667,10.667,0,0,1-2.578,10.95,11.8,11.8,0,0,0-1.678,2.145ZM16.9,8.815c-.132.023-.263.047-.4.06a5.5,5.5,0,0,1-.6.013c-.147,0-.293,0-.44-.015a5.7,5.7,0,0,1-.617-.11c-.137-.03-.276-.047-.41-.087a5.3,5.3,0,0,1-.976-.391A4.921,4.921,0,0,1,12.986,8l.132-.131.587-.587.017.009a4.236,4.236,0,0,0,.451.234c.153.061.306.121.47.172a4.043,4.043,0,0,0,.873.177,3.353,3.353,0,0,0,.849,0c.06,0,.121-.009.18-.016.016,0,.034,0,.05,0a1.25,1.25,0,0,0,.143.215,2.468,2.468,0,0,0,.255.358.748.748,0,0,0,.1.136.79.79,0,0,0,.133.17C17.116,8.766,17.01,8.8,16.9,8.815ZM13.54,6.036l-.2.2a.554.554,0,0,0-.064.054L10.65,8.926V4.373h2.89ZM9.65,10.022a.49.49,0,0,0,0,.255v3.769l-2.97,2.97V4.373H9.65ZM5.68,4.373v17.6L2.71,24.945V4.373ZM2.71,30.937l2.049.533a11.56,11.56,0,0,0-.233,4.963l1.243,7.194H2.71Zm12.049,12.69H11.278l-1.272-7.366a10.17,10.17,0,0,1-.011-3.429l3.386.881c-.013.239-.032.478-.032.717a11.619,11.619,0,0,0,.178,2ZM16.776,26.18a11.425,11.425,0,0,0-2.215,3.136l-2.924-.733a10.816,10.816,0,0,1,1.357-1.7,11.66,11.66,0,0,0,2.82-11.972l-1.03-3.083a8.416,8.416,0,0,0,1.2.092,8.246,8.246,0,0,0,2.171-.313l1.205,3.621A10.625,10.625,0,0,1,16.776,26.18ZM20.209,9.973a.365.365,0,0,0-.064-.041,5.734,5.734,0,0,1-.882-.586,8.029,8.029,0,0,1-.773-.68c-.159-.169-.319-.348-.469-.536-.012-.015-.1-.117-.111-.131a1.456,1.456,0,0,1-.1-.142,2.365,2.365,0,0,1-.215-.3l-.065-.1c-.028-.04-.056-.081-.1-.16s-.095-.157-.149-.253a5.722,5.722,0,0,1-.339-.65c-.072-.167-.139-.34-.2-.526s-.123-.386-.182-.6h0v0c-.047-.172-.084-.344-.114-.508-.01-.056-.018-.106-.026-.16-.013-.076-.025-.149-.034-.218H17.4l.033.225a6.492,6.492,0,0,0,.78,2.048,5.529,5.529,0,0,0,.34.522A6.127,6.127,0,0,0,19.579,8.3a5.06,5.06,0,0,0,.523.415,5.92,5.92,0,0,0,1.418.765,6.389,6.389,0,0,0,1.026.292c.059.012.116.028.176.038a6.63,6.63,0,0,0,.992.092c.046,0,.09.012.136.012s.088-.006.132-.007c.076,0,.151-.007.227-.011.143-.008.285-.015.424-.032.07-.008.137-.022.206-.032.143-.022.286-.043.425-.074.075-.017.147-.041.221-.06.127-.034.254-.064.377-.106a5.511,5.511,0,0,0,.573-.228A6.287,6.287,0,0,0,28.3,8.147a6.7,6.7,0,0,0,1.33-1.753c.1-.19.19-.381.256-.552a3.883,3.883,0,0,0,.172-.467A.493.493,0,0,0,30.1,5.23a3.089,3.089,0,0,0,.123-.486c.007-.024.017-.067.026-.112a1.276,1.276,0,0,0,.044-.259h1.028c-.009.071-.017.138-.027.214-.038.214-.074.42-.13.625,0,.012-.006.024-.008.037-.055.2-.126.38-.192.568-.04.11-.071.227-.114.334a7.484,7.484,0,0,1-.361.754c-.016.029-.027.061-.043.089A7.224,7.224,0,0,1,29.3,8.569,7.6,7.6,0,0,1,27.7,9.854,7.6,7.6,0,0,1,20.209,9.973ZM28.6,15.229l1.2-3.618a8.485,8.485,0,0,0,2.268.312,8.42,8.42,0,0,0,1.1-.076l-1.015,3.069a11.684,11.684,0,0,0,2.861,12.01,10.367,10.367,0,0,1,1.325,1.663l-2.91.728a11.655,11.655,0,0,0-2.238-3.137A10.651,10.651,0,0,1,28.6,15.229ZM34.5,36.38a11.843,11.843,0,0,0,.115-2.59l3.4-.868a10.743,10.743,0,0,1-.009,3.3l-1.209,7.4-3.486.006Zm7.8,7.23,1.186-7.23a11.7,11.7,0,0,0-.231-4.794l2.035-.519V43.6Z"/></svg>